<?xml version="1.0" encoding="utf-8"?>
<!-- Generator: Adobe Illustrator 25.4.1, SVG Export Plug-In . SVG Version: 6.00 Build 0)  -->
<svg version="1.1" id="Layer_1" xmlns="http://www.w3.org/2000/svg" xmlns:xlink="http://www.w3.org/1999/xlink" x="0px" y="0px"
	 viewBox="0 0 38 30" style="enable-background:new 0 0 38 30;" xml:space="preserve">
<style type="text/css">
	.st0{fill:none;stroke:#FFF3B1;stroke-width:2;stroke-miterlimit:10;}
	.st1{fill:none;stroke:#FFF3B1;stroke-width:2;stroke-linecap:round;stroke-miterlimit:10;}
</style>
<g id="Layer_2_00000125566658834840452920000002564491913876114071_">
	<g id="_29">
		<path class="st0" d="M7,11C7,5.5,11.5,1,17,1s10,4.5,10,10"/>
		<path class="st1" d="M31,23c3.3,0,6-2.7,6-6s-2.7-6-6-6h-4"/>
		<path class="st1" d="M13,17c0-3.3-2.7-6-6-6s-6,2.7-6,6s2.7,6,6,6"/>
		<circle class="st1" cx="19" cy="23" r="3"/>
		<line class="st1" x1="19" y1="18" x2="19" y2="20"/>
		<line class="st1" x1="14.2" y1="20.2" x2="16" y2="21.2"/>
		<line class="st1" x1="14.2" y1="25.8" x2="16" y2="24.8"/>
		<line class="st1" x1="19" y1="29" x2="19" y2="27"/>
		<line class="st1" x1="23.8" y1="25.8" x2="22" y2="24.8"/>
		<line class="st1" x1="23.8" y1="20.2" x2="22" y2="21.2"/>
	</g>
</g>
</svg>
