<?xml version="1.0" encoding="utf-8"?>
<!-- Generator: Adobe Illustrator 25.4.1, SVG Export Plug-In . SVG Version: 6.00 Build 0)  -->
<svg version="1.1" id="Layer_1" xmlns="http://www.w3.org/2000/svg" xmlns:xlink="http://www.w3.org/1999/xlink" x="0px" y="0px"
	 viewBox="0 0 42 32" style="enable-background:new 0 0 42 32;" xml:space="preserve">
<style type="text/css">
	.st0{fill:none;stroke:#FFF3B1;stroke-width:2;stroke-miterlimit:10;}
	.st1{fill:none;stroke:#FFF3B1;stroke-width:2;stroke-linecap:round;stroke-miterlimit:10;}
</style>
<g id="Layer_2_00000120523130984740638980000017433351846973400194_">
	<g id="_14">
		<path class="st0" d="M7,19c0-5.5,4.5-10,10-10s10,4.5,10,10"/>
		<path class="st1" d="M13,25c0-3.3-2.7-6-6-6s-6,2.7-6,6s2.7,6,6,6h24c3.3,0,6-2.7,6-6s-2.7-6-6-6h-4"/>
		<path class="st0" d="M20.9,9.8c2.9-3.4,7.9-3.8,11.3-0.9c3.1,2.7,3.7,7.3,1.4,10.7"/>
		<line class="st1" x1="27" y1="1" x2="27" y2="3"/>
		<line class="st1" x1="41" y1="15" x2="39" y2="15"/>
		<line class="st1" x1="36.9" y1="5.1" x2="35.5" y2="6.5"/>
	</g>
</g>
</svg>
